<svg xmlns="http://www.w3.org/2000/svg" xmlns:xlink="http://www.w3.org/1999/xlink" width="500" zoomAndPan="magnify" viewBox="0 0 375 374.999991" height="500" preserveAspectRatio="xMidYMid meet" version="1.0"><defs><g/><clipPath id="4b19af8b18"><path d="M 37.5 37.5 L 337.5 37.5 L 337.5 337.5 L 37.5 337.5 Z M 37.5 37.5 " clip-rule="nonzero"/></clipPath><clipPath id="8055372f45"><path d="M 187.5 37.5 C 104.65625 37.5 37.5 104.65625 37.5 187.5 C 37.5 270.34375 104.65625 337.5 187.5 337.5 C 270.34375 337.5 337.5 270.34375 337.5 187.5 C 337.5 104.65625 270.34375 37.5 187.5 37.5 Z M 187.5 37.5 " clip-rule="nonzero"/></clipPath><clipPath id="ef466def51"><path d="M 76.667969 76.667969 L 298.332031 76.667969 L 298.332031 298.332031 L 76.667969 298.332031 Z M 76.667969 76.667969 " clip-rule="nonzero"/></clipPath><clipPath id="d7db108fae"><path d="M 187.5 76.667969 C 126.289062 76.667969 76.667969 126.289062 76.667969 187.5 C 76.667969 248.710938 126.289062 298.332031 187.5 298.332031 C 248.710938 298.332031 298.332031 248.710938 298.332031 187.5 C 298.332031 126.289062 248.710938 76.667969 187.5 76.667969 Z M 187.5 76.667969 " clip-rule="nonzero"/></clipPath><clipPath id="c3bc56ef1c"><path d="M 76.667969 76.667969 L 298.328125 76.667969 L 298.328125 298.328125 L 76.667969 298.328125 Z M 76.667969 76.667969 " clip-rule="nonzero"/></clipPath><clipPath id="0bbba82851"><path d="M 187.496094 76.667969 C 126.285156 76.667969 76.667969 126.285156 76.667969 187.496094 C 76.667969 248.707031 126.285156 298.328125 187.496094 298.328125 C 248.707031 298.328125 298.328125 248.707031 298.328125 187.496094 C 298.328125 126.285156 248.707031 76.667969 187.496094 76.667969 Z M 187.496094 76.667969 " clip-rule="nonzero"/></clipPath></defs><rect x="-37.5" width="450" fill="#ffffff" y="-37.499999" height="449.999989" fill-opacity="1"/><rect x="-37.5" width="450" fill="#ffffff" y="-37.499999" height="449.999989" fill-opacity="1"/><g clip-path="url(#4b19af8b18)"><g clip-path="url(#8055372f45)"><path fill="#ffeef1" d="M 37.5 37.5 L 337.5 37.5 L 337.5 337.5 L 37.5 337.5 Z M 37.5 37.5 " fill-opacity="1" fill-rule="nonzero"/><path stroke-linecap="butt" transform="matrix(0.75, 0, 0, 0.75, 37.500002, 37.499998)" fill="none" stroke-linejoin="miter" d="M 200.00001 0.00000328333 C 89.54167 0.00000328333 -0.00000271667 89.541676 -0.00000271667 200.000016 C -0.00000271667 310.458357 89.54167 400.00003 200.00001 400.00003 C 310.458351 400.00003 400.000024 310.458357 400.000024 200.000016 C 400.000024 89.541676 310.458351 0.00000328333 200.00001 0.00000328333 Z M 200.00001 0.00000328333 " stroke="#be274d" stroke-width="6" stroke-opacity="1" stroke-miterlimit="4"/></g></g><g clip-path="url(#ef466def51)"><g clip-path="url(#d7db108fae)"><path fill="#f9e0ca" d="M 76.667969 76.667969 L 298.332031 76.667969 L 298.332031 298.332031 L 76.667969 298.332031 Z M 76.667969 76.667969 " fill-opacity="1" fill-rule="nonzero"/></g></g><g clip-path="url(#c3bc56ef1c)"><g clip-path="url(#0bbba82851)"><path stroke-linecap="butt" transform="matrix(0.75, 0, 0, 0.75, 76.666742, 76.666737)" fill="none" stroke-linejoin="miter" d="M 147.772479 0.00164185 C 66.15789 0.00164185 0.00163585 66.157896 0.00163585 147.772485 C 0.00163585 229.387074 66.15789 295.548536 147.772479 295.548536 C 229.387068 295.548536 295.54853 229.387074 295.54853 147.772485 C 295.54853 66.157896 229.387068 0.00164185 147.772479 0.00164185 Z M 147.772479 0.00164185 " stroke="#dc5274" stroke-width="6" stroke-opacity="1" stroke-miterlimit="4"/></g></g><path fill="#000000" d="M 129.117188 189.167969 C 126.4375 182.0625 125.101562 174.710938 125.109375 167.113281 C 125.109375 132.71875 153.066406 104.734375 187.433594 104.734375 C 221.796875 104.734375 249.753906 132.71875 249.753906 167.113281 C 249.761719 174.710938 248.425781 182.0625 245.746094 189.167969 L 244.90625 188.851562 C 247.550781 181.847656 248.867188 174.601562 248.855469 167.113281 C 248.855469 133.214844 221.300781 105.632812 187.433594 105.632812 C 153.5625 105.632812 126.007812 133.214844 126.007812 167.113281 C 125.996094 174.601562 127.3125 181.847656 129.957031 188.851562 Z M 129.117188 189.167969 " fill-opacity="1" fill-rule="nonzero"/><path fill="#fbcf7e" d="M 140.164062 245.085938 C 139.460938 245.085938 138.757812 245.027344 138.0625 244.910156 C 137.367188 244.796875 136.683594 244.625 136.015625 244.394531 C 135.347656 244.167969 134.703125 243.886719 134.082031 243.554688 C 133.460938 243.21875 132.871094 242.835938 132.308594 242.40625 C 131.75 241.972656 131.230469 241.5 130.75 240.984375 C 130.269531 240.46875 129.832031 239.914062 129.441406 239.328125 C 129.050781 238.738281 128.710938 238.121094 128.421875 237.476562 C 128.128906 236.832031 127.894531 236.171875 127.714844 235.488281 L 119.496094 204.453125 C 119.28125 203.632812 119.144531 202.800781 119.09375 201.957031 C 119.039062 201.113281 119.070312 200.269531 119.183594 199.429688 C 119.296875 198.589844 119.492188 197.769531 119.765625 196.96875 C 120.039062 196.167969 120.390625 195.402344 120.8125 194.667969 C 121.238281 193.9375 121.730469 193.253906 122.289062 192.617188 C 122.851562 191.984375 123.46875 191.40625 124.140625 190.894531 C 124.8125 190.378906 125.527344 189.9375 126.289062 189.5625 C 127.046875 189.191406 127.835938 188.898438 128.65625 188.679688 L 135.871094 186.765625 L 150.707031 242.738281 L 143.488281 244.652344 C 142.398438 244.941406 141.292969 245.085938 140.164062 245.085938 Z M 140.164062 245.085938 " fill-opacity="1" fill-rule="nonzero"/><path fill="#000000" d="M 135.550781 187.3125 L 150.144531 242.417969 L 143.359375 244.210938 C 142.570312 244.421875 141.769531 244.554688 140.953125 244.605469 C 140.136719 244.65625 139.324219 244.628906 138.515625 244.519531 C 137.707031 244.410156 136.914062 244.226562 136.140625 243.960938 C 135.367188 243.695312 134.628906 243.355469 133.921875 242.945312 C 133.214844 242.535156 132.554688 242.058594 131.941406 241.519531 C 131.332031 240.976562 130.777344 240.382812 130.28125 239.730469 C 129.785156 239.082031 129.359375 238.386719 129 237.652344 C 128.640625 236.917969 128.359375 236.15625 128.148438 235.363281 L 119.929688 204.335938 C 119.722656 203.546875 119.59375 202.742188 119.542969 201.929688 C 119.492188 201.113281 119.519531 200.300781 119.628906 199.488281 C 119.738281 198.679688 119.925781 197.886719 120.191406 197.117188 C 120.457031 196.34375 120.792969 195.601562 121.203125 194.894531 C 121.613281 194.1875 122.089844 193.53125 122.628906 192.917969 C 123.167969 192.304688 123.765625 191.75 124.414062 191.253906 C 125.0625 190.757812 125.753906 190.328125 126.484375 189.96875 C 127.21875 189.609375 127.980469 189.324219 128.769531 189.113281 L 135.550781 187.320312 M 136.1875 186.222656 L 128.539062 188.238281 C 127.691406 188.460938 126.875 188.765625 126.085938 189.152344 C 125.300781 189.535156 124.558594 189.996094 123.859375 190.527344 C 123.164062 191.058594 122.527344 191.652344 121.945312 192.3125 C 121.367188 192.96875 120.855469 193.675781 120.414062 194.433594 C 119.976562 195.195312 119.613281 195.988281 119.328125 196.816406 C 119.046875 197.648438 118.84375 198.496094 118.726562 199.367188 C 118.613281 200.234375 118.582031 201.105469 118.636719 201.984375 C 118.691406 202.859375 118.832031 203.71875 119.054688 204.566406 L 127.285156 235.605469 C 127.507812 236.453125 127.8125 237.269531 128.195312 238.058594 C 128.582031 238.84375 129.039062 239.585938 129.570312 240.285156 C 130.101562 240.980469 130.695312 241.621094 131.351562 242.199219 C 132.007812 242.78125 132.714844 243.289062 133.472656 243.730469 C 134.230469 244.171875 135.023438 244.53125 135.851562 244.816406 C 136.679688 245.101562 137.527344 245.300781 138.394531 245.417969 C 139.265625 245.535156 140.136719 245.5625 141.007812 245.507812 C 141.882812 245.453125 142.742188 245.3125 143.589844 245.085938 L 151.238281 243.058594 L 136.1875 186.21875 Z M 136.1875 186.222656 " fill-opacity="1" fill-rule="nonzero"/><path fill="#ffffff" d="M 137.773438 184.125 L 152.058594 180.292969 C 152.359375 180.210938 152.660156 180.191406 152.96875 180.234375 C 153.273438 180.273438 153.5625 180.371094 153.832031 180.523438 C 154.097656 180.679688 154.328125 180.878906 154.515625 181.125 C 154.703125 181.371094 154.835938 181.644531 154.917969 181.941406 L 169.796875 237.503906 C 169.875 237.804688 169.898438 238.105469 169.855469 238.414062 C 169.816406 238.722656 169.71875 239.007812 169.5625 239.277344 C 169.410156 239.542969 169.210938 239.773438 168.964844 239.960938 C 168.71875 240.148438 168.445312 240.285156 168.148438 240.363281 L 153.859375 244.199219 C 153.5625 244.277344 153.257812 244.296875 152.953125 244.257812 C 152.644531 244.21875 152.359375 244.121094 152.089844 243.964844 C 151.820312 243.808594 151.59375 243.609375 151.40625 243.363281 C 151.21875 243.117188 151.082031 242.847656 151.003906 242.546875 L 136.125 186.984375 C 136.042969 186.6875 136.023438 186.382812 136.0625 186.074219 C 136.105469 185.769531 136.203125 185.480469 136.355469 185.214844 C 136.511719 184.945312 136.710938 184.71875 136.957031 184.527344 C 137.203125 184.339844 137.472656 184.207031 137.773438 184.125 Z M 137.773438 184.125 " fill-opacity="1" fill-rule="nonzero"/><path fill="#000000" d="M 152.601562 244.363281 C 152.296875 244.363281 152 244.3125 151.710938 244.214844 C 151.421875 244.113281 151.15625 243.972656 150.914062 243.785156 C 150.671875 243.597656 150.46875 243.378906 150.300781 243.125 C 150.132812 242.867188 150.007812 242.59375 149.929688 242.296875 L 135.269531 186.929688 C 135.175781 186.574219 135.152344 186.214844 135.203125 185.847656 C 135.25 185.484375 135.367188 185.144531 135.554688 184.828125 C 135.738281 184.507812 135.976562 184.238281 136.265625 184.015625 C 136.558594 183.792969 136.882812 183.632812 137.234375 183.539062 L 151.476562 179.761719 C 151.832031 179.667969 152.191406 179.644531 152.554688 179.695312 C 152.917969 179.746094 153.257812 179.863281 153.574219 180.046875 C 153.894531 180.230469 154.164062 180.46875 154.386719 180.761719 C 154.609375 181.050781 154.765625 181.375 154.863281 181.730469 L 169.515625 237.101562 C 169.613281 237.457031 169.636719 237.816406 169.585938 238.179688 C 169.539062 238.546875 169.421875 238.886719 169.238281 239.207031 C 169.050781 239.523438 168.8125 239.792969 168.519531 240.015625 C 168.226562 240.238281 167.90625 240.398438 167.550781 240.492188 L 153.3125 244.269531 C 153.078125 244.332031 152.84375 244.363281 152.601562 244.363281 Z M 152.199219 180.566406 C 152.035156 180.566406 151.875 180.585938 151.71875 180.628906 L 137.464844 184.40625 C 137.226562 184.46875 137.007812 184.578125 136.808594 184.726562 C 136.613281 184.878906 136.449219 185.0625 136.324219 185.277344 C 136.199219 185.492188 136.121094 185.722656 136.089844 185.96875 C 136.054688 186.214844 136.070312 186.457031 136.132812 186.699219 L 150.796875 242.070312 C 150.859375 242.308594 150.964844 242.527344 151.117188 242.726562 C 151.269531 242.921875 151.453125 243.085938 151.667969 243.210938 C 151.882812 243.335938 152.113281 243.414062 152.359375 243.445312 C 152.605469 243.480469 152.847656 243.464844 153.089844 243.402344 L 167.324219 239.625 C 167.566406 239.558594 167.785156 239.453125 167.980469 239.300781 C 168.179688 239.152344 168.339844 238.96875 168.464844 238.753906 C 168.589844 238.539062 168.667969 238.308594 168.703125 238.0625 C 168.734375 237.816406 168.71875 237.570312 168.65625 237.332031 L 153.988281 181.960938 C 153.882812 181.554688 153.660156 181.21875 153.328125 180.960938 C 152.996094 180.703125 152.621094 180.570312 152.199219 180.566406 Z M 152.199219 180.566406 " fill-opacity="1" fill-rule="nonzero"/><path fill="#fbcf7e" d="M 234.699219 245.085938 C 233.574219 245.085938 232.472656 244.941406 231.386719 244.652344 L 224.15625 242.738281 L 238.980469 186.765625 L 246.195312 188.679688 C 247.015625 188.898438 247.800781 189.191406 248.5625 189.566406 C 249.320312 189.9375 250.039062 190.382812 250.710938 190.898438 C 251.382812 191.410156 251.996094 191.984375 252.558594 192.621094 C 253.117188 193.253906 253.609375 193.941406 254.035156 194.671875 C 254.457031 195.402344 254.808594 196.171875 255.082031 196.972656 C 255.355469 197.773438 255.550781 198.59375 255.664062 199.429688 C 255.777344 200.269531 255.808594 201.113281 255.757812 201.957031 C 255.703125 202.804688 255.570312 203.636719 255.355469 204.453125 L 247.148438 235.488281 C 246.96875 236.171875 246.734375 236.832031 246.445312 237.476562 C 246.152344 238.121094 245.8125 238.738281 245.421875 239.324219 C 245.03125 239.914062 244.597656 240.464844 244.113281 240.984375 C 243.632812 241.5 243.113281 241.972656 242.554688 242.402344 C 241.996094 242.835938 241.40625 243.21875 240.785156 243.550781 C 240.160156 243.886719 239.515625 244.167969 238.847656 244.394531 C 238.179688 244.625 237.5 244.796875 236.804688 244.910156 C 236.109375 245.027344 235.40625 245.085938 234.699219 245.085938 Z M 234.699219 245.085938 " fill-opacity="1" fill-rule="nonzero"/><path fill="#000000" d="M 239.3125 187.3125 L 246.09375 189.105469 C 246.882812 189.316406 247.644531 189.601562 248.378906 189.960938 C 249.109375 190.324219 249.800781 190.75 250.449219 191.246094 C 251.101562 191.742188 251.695312 192.296875 252.234375 192.910156 C 252.773438 193.523438 253.25 194.183594 253.660156 194.890625 C 254.070312 195.597656 254.40625 196.335938 254.671875 197.109375 C 254.9375 197.882812 255.125 198.675781 255.234375 199.484375 C 255.34375 200.292969 255.371094 201.105469 255.320312 201.921875 C 255.269531 202.738281 255.140625 203.539062 254.933594 204.332031 L 246.714844 235.375 C 246.503906 236.164062 246.222656 236.925781 245.863281 237.664062 C 245.503906 238.398438 245.078125 239.089844 244.582031 239.738281 C 244.085938 240.390625 243.53125 240.988281 242.921875 241.527344 C 242.308594 242.070312 241.648438 242.542969 240.941406 242.957031 C 240.234375 243.367188 239.496094 243.703125 238.722656 243.96875 C 237.949219 244.234375 237.160156 244.421875 236.347656 244.527344 C 235.539062 244.636719 234.726562 244.664062 233.910156 244.613281 C 233.09375 244.5625 232.292969 244.429688 231.503906 244.21875 L 224.71875 242.425781 L 239.3125 187.324219 M 238.675781 186.226562 L 223.625 243.058594 L 231.273438 245.085938 C 232.121094 245.3125 232.980469 245.453125 233.855469 245.507812 C 234.726562 245.5625 235.597656 245.535156 236.46875 245.417969 C 237.335938 245.300781 238.183594 245.101562 239.011719 244.816406 C 239.839844 244.53125 240.632812 244.171875 241.390625 243.730469 C 242.148438 243.289062 242.855469 242.78125 243.511719 242.199219 C 244.167969 241.621094 244.761719 240.980469 245.292969 240.285156 C 245.824219 239.585938 246.28125 238.84375 246.667969 238.058594 C 247.050781 237.269531 247.355469 236.453125 247.578125 235.605469 L 255.808594 204.566406 C 256.03125 203.71875 256.171875 202.859375 256.226562 201.984375 C 256.28125 201.105469 256.253906 200.234375 256.136719 199.367188 C 256.019531 198.496094 255.816406 197.648438 255.535156 196.816406 C 255.25 195.988281 254.886719 195.195312 254.449219 194.433594 C 254.007812 193.675781 253.496094 192.96875 252.917969 192.3125 C 252.335938 191.652344 251.699219 191.058594 251.003906 190.527344 C 250.304688 189.996094 249.5625 189.535156 248.777344 189.152344 C 247.988281 188.765625 247.171875 188.460938 246.324219 188.238281 L 238.675781 186.207031 Z M 238.675781 186.226562 " fill-opacity="1" fill-rule="nonzero"/><path fill="#ffffff" d="M 221.652344 243.84375 L 207.414062 240.066406 C 207.117188 239.988281 206.84375 239.855469 206.601562 239.667969 C 206.355469 239.480469 206.15625 239.253906 206 238.988281 C 205.847656 238.71875 205.75 238.433594 205.707031 238.128906 C 205.667969 237.824219 205.683594 237.519531 205.765625 237.222656 L 220.421875 181.855469 C 220.5 181.554688 220.632812 181.285156 220.820312 181.039062 C 221.007812 180.792969 221.234375 180.59375 221.5 180.4375 C 221.765625 180.285156 222.050781 180.1875 222.355469 180.144531 C 222.664062 180.105469 222.964844 180.121094 223.261719 180.203125 L 237.5 183.976562 C 237.796875 184.054688 238.070312 184.191406 238.3125 184.375 C 238.558594 184.5625 238.757812 184.789062 238.914062 185.058594 C 239.066406 185.324219 239.167969 185.609375 239.207031 185.914062 C 239.25 186.222656 239.230469 186.523438 239.148438 186.820312 L 224.492188 242.191406 C 224.414062 242.488281 224.28125 242.761719 224.09375 243.003906 C 223.90625 243.25 223.679688 243.449219 223.414062 243.605469 C 223.148438 243.761719 222.863281 243.859375 222.558594 243.898438 C 222.253906 243.941406 221.949219 243.921875 221.652344 243.84375 Z M 221.652344 243.84375 " fill-opacity="1" fill-rule="nonzero"/><path fill="#000000" d="M 222.257812 244.363281 C 222.015625 244.363281 221.777344 244.332031 221.546875 244.269531 L 207.308594 240.492188 C 206.953125 240.398438 206.628906 240.238281 206.339844 240.015625 C 206.046875 239.792969 205.808594 239.523438 205.625 239.203125 C 205.441406 238.886719 205.324219 238.542969 205.277344 238.179688 C 205.226562 237.816406 205.25 237.457031 205.347656 237.101562 L 220.007812 181.730469 C 220.101562 181.375 220.261719 181.050781 220.484375 180.761719 C 220.707031 180.46875 220.976562 180.230469 221.292969 180.046875 C 221.613281 179.863281 221.953125 179.746094 222.316406 179.695312 C 222.679688 179.644531 223.039062 179.667969 223.394531 179.761719 L 237.632812 183.539062 C 237.988281 183.632812 238.3125 183.792969 238.601562 184.015625 C 238.894531 184.238281 239.132812 184.507812 239.316406 184.828125 C 239.5 185.144531 239.617188 185.484375 239.667969 185.847656 C 239.714844 186.214844 239.695312 186.574219 239.601562 186.929688 L 224.933594 242.296875 C 224.855469 242.59375 224.730469 242.871094 224.5625 243.125 C 224.390625 243.382812 224.183594 243.601562 223.941406 243.789062 C 223.699219 243.976562 223.433594 244.117188 223.140625 244.21875 C 222.851562 244.316406 222.554688 244.363281 222.246094 244.363281 Z M 222.679688 180.566406 C 222.257812 180.566406 221.875 180.695312 221.539062 180.957031 C 221.203125 181.214844 220.980469 181.550781 220.875 181.960938 L 206.214844 237.332031 C 206.148438 237.570312 206.132812 237.816406 206.167969 238.0625 C 206.199219 238.308594 206.277344 238.539062 206.402344 238.753906 C 206.527344 238.96875 206.691406 239.152344 206.886719 239.300781 C 207.085938 239.453125 207.304688 239.558594 207.542969 239.625 L 221.769531 243.402344 C 222.007812 243.464844 222.253906 243.480469 222.5 243.445312 C 222.746094 243.414062 222.976562 243.335938 223.191406 243.210938 C 223.40625 243.085938 223.589844 242.921875 223.738281 242.726562 C 223.890625 242.527344 224 242.308594 224.0625 242.070312 L 238.722656 186.699219 C 238.785156 186.457031 238.800781 186.214844 238.769531 185.96875 C 238.734375 185.722656 238.65625 185.492188 238.53125 185.277344 C 238.40625 185.0625 238.246094 184.878906 238.046875 184.726562 C 237.851562 184.578125 237.632812 184.46875 237.390625 184.40625 L 223.152344 180.628906 C 222.996094 180.585938 222.839844 180.566406 222.679688 180.566406 Z M 222.679688 180.566406 " fill-opacity="1" fill-rule="nonzero"/><path fill="#ffffff" d="M 128.683594 167.113281 C 128.855469 142.726562 144.210938 120.191406 167.28125 111.851562 C 190.464844 103.484375 216.71875 110.617188 232.570312 129.460938 C 241.417969 139.972656 246.082031 153.425781 246.179688 167.117188 C 246.207031 171.140625 252.449219 171.152344 252.429688 167.117188 C 252.238281 140.070312 235.34375 115.652344 210.03125 106.109375 C 184.71875 96.566406 154.902344 104.519531 137.609375 125.351562 C 135.191406 128.265625 133.042969 131.363281 131.160156 134.648438 C 129.277344 137.933594 127.691406 141.355469 126.398438 144.914062 C 125.105469 148.472656 124.125 152.113281 123.457031 155.84375 C 122.792969 159.570312 122.449219 163.328125 122.433594 167.113281 C 122.40625 171.140625 128.65625 171.144531 128.683594 167.113281 Z M 128.683594 167.113281 " fill-opacity="1" fill-rule="nonzero"/><path fill="#000000" d="M 125.539062 170.582031 L 125.511719 170.582031 C 123.746094 170.582031 121.96875 169.386719 121.984375 167.109375 C 122.011719 163.300781 122.359375 159.515625 123.035156 155.765625 C 123.707031 152.015625 124.695312 148.347656 126 144.765625 C 127.300781 141.183594 128.898438 137.738281 130.789062 134.429688 C 132.683594 131.125 134.84375 128 137.269531 125.0625 C 154.714844 104.046875 184.699219 96.074219 210.191406 105.6875 C 211.738281 106.277344 213.261719 106.921875 214.761719 107.625 C 216.261719 108.328125 217.730469 109.085938 219.171875 109.898438 C 220.617188 110.714844 222.027344 111.578125 223.402344 112.5 C 224.78125 113.417969 226.121094 114.386719 227.429688 115.40625 C 228.734375 116.429688 229.996094 117.496094 231.222656 118.609375 C 232.449219 119.726562 233.628906 120.886719 234.765625 122.089844 C 235.90625 123.292969 236.996094 124.535156 238.042969 125.824219 C 239.085938 127.109375 240.082031 128.429688 241.027344 129.792969 C 241.972656 131.152344 242.867188 132.546875 243.707031 133.972656 C 244.546875 135.402344 245.335938 136.859375 246.066406 138.34375 C 246.800781 139.832031 247.476562 141.34375 248.09375 142.878906 C 248.710938 144.417969 249.273438 145.976562 249.773438 147.554688 C 250.277344 149.132812 250.71875 150.730469 251.101562 152.339844 C 251.484375 153.953125 251.804688 155.578125 252.066406 157.214844 C 252.324219 158.851562 252.523438 160.496094 252.660156 162.148438 C 252.800781 163.800781 252.875 165.453125 252.886719 167.109375 C 252.917969 167.714844 252.785156 168.285156 252.496094 168.816406 C 252.207031 169.347656 251.800781 169.765625 251.277344 170.074219 C 250.679688 170.410156 250.039062 170.578125 249.351562 170.582031 C 248.667969 170.585938 248.023438 170.421875 247.421875 170.089844 C 246.886719 169.789062 246.46875 169.375 246.164062 168.839844 C 245.863281 168.304688 245.722656 167.730469 245.742188 167.117188 C 245.644531 153.253906 240.847656 139.984375 232.238281 129.757812 C 216.460938 111.003906 190.417969 103.980469 167.425781 112.273438 C 156.25 116.304688 146.679688 123.71875 139.75 133.714844 C 138.050781 136.152344 136.546875 138.703125 135.230469 141.367188 C 133.917969 144.03125 132.808594 146.777344 131.910156 149.609375 C 131.007812 152.441406 130.328125 155.324219 129.859375 158.257812 C 129.394531 161.191406 129.152344 164.144531 129.132812 167.117188 C 129.113281 169.410156 127.316406 170.582031 125.539062 170.582031 Z M 187.160156 107.9375 C 189.332031 107.933594 191.496094 108.050781 193.65625 108.285156 C 195.8125 108.523438 197.953125 108.871094 200.074219 109.339844 C 202.195312 109.808594 204.28125 110.390625 206.339844 111.085938 C 208.398438 111.78125 210.410156 112.585938 212.378906 113.5 C 214.351562 114.414062 216.265625 115.429688 218.125 116.554688 C 219.984375 117.675781 221.773438 118.898438 223.5 120.214844 C 225.226562 121.53125 226.878906 122.941406 228.453125 124.4375 C 230.027344 125.933594 231.511719 127.511719 232.914062 129.171875 C 241.660156 139.566406 246.53125 153.039062 246.628906 167.109375 C 246.613281 167.5625 246.714844 167.988281 246.933594 168.382812 C 247.15625 168.777344 247.460938 169.085938 247.855469 169.308594 C 248.3125 169.566406 248.808594 169.695312 249.335938 169.695312 C 249.863281 169.695312 250.355469 169.566406 250.816406 169.308594 C 251.203125 169.085938 251.5 168.777344 251.710938 168.386719 C 251.921875 167.992188 252.011719 167.574219 251.984375 167.128906 C 251.96875 165.492188 251.894531 163.863281 251.761719 162.234375 C 251.625 160.605469 251.429688 158.984375 251.171875 157.367188 C 250.917969 155.753906 250.601562 154.152344 250.222656 152.5625 C 249.847656 150.972656 249.410156 149.398438 248.914062 147.839844 C 248.421875 146.28125 247.867188 144.746094 247.257812 143.230469 C 246.648438 141.710938 245.984375 140.222656 245.261719 138.753906 C 244.539062 137.289062 243.765625 135.851562 242.933594 134.445312 C 242.105469 133.035156 241.222656 131.660156 240.292969 130.320312 C 239.359375 128.976562 238.378906 127.671875 237.347656 126.402344 C 236.316406 125.136719 235.242188 123.90625 234.121094 122.71875 C 232.996094 121.53125 231.832031 120.390625 230.625 119.289062 C 229.417969 118.191406 228.167969 117.136719 226.882812 116.128906 C 225.59375 115.125 224.273438 114.167969 222.914062 113.261719 C 221.554688 112.351562 220.164062 111.5 218.742188 110.695312 C 217.320312 109.894531 215.867188 109.144531 214.390625 108.453125 C 212.910156 107.757812 211.410156 107.121094 209.882812 106.539062 C 184.746094 97.054688 155.15625 104.910156 137.953125 125.636719 C 135.558594 128.535156 133.429688 131.613281 131.5625 134.878906 C 129.695312 138.140625 128.121094 141.539062 126.835938 145.074219 C 125.550781 148.605469 124.578125 152.222656 123.914062 155.925781 C 123.25 159.625 122.90625 163.355469 122.878906 167.117188 C 122.878906 168.871094 124.238281 169.679688 125.515625 169.6875 C 126.792969 169.695312 128.222656 168.894531 128.238281 167.109375 C 128.257812 164.09375 128.503906 161.097656 128.980469 158.117188 C 129.453125 155.140625 130.144531 152.210938 131.058594 149.339844 C 131.972656 146.464844 133.097656 143.675781 134.433594 140.972656 C 135.769531 138.265625 137.296875 135.679688 139.023438 133.203125 C 146.058594 123.050781 155.78125 115.523438 167.128906 111.429688 C 173.601562 109.097656 180.28125 107.933594 187.160156 107.9375 Z M 187.160156 107.9375 " fill-opacity="1" fill-rule="nonzero"/><g fill="#dc5274" fill-opacity="1"><g transform="translate(98.435496, 107.781368)"><g><path d="M 2 -10.5625 L 1.203125 -10.609375 L -1.609375 -10.90625 C -1.304688 -10.59375 -1.019531 -10.300781 -0.75 -10.03125 C -0.488281 -9.769531 -0.242188 -9.519531 -0.015625 -9.28125 L 1.171875 -8.0625 C 1.335938 -7.894531 1.5 -7.722656 1.65625 -7.546875 C 1.820312 -7.378906 1.984375 -7.222656 2.140625 -7.078125 L 3.078125 -6.109375 C 3.316406 -5.859375 3.5 -5.578125 3.625 -5.265625 C 3.75 -4.960938 3.804688 -4.660156 3.796875 -4.359375 C 3.804688 -4.035156 3.742188 -3.722656 3.609375 -3.421875 C 3.484375 -3.128906 3.296875 -2.859375 3.046875 -2.609375 C 2.785156 -2.367188 2.503906 -2.1875 2.203125 -2.0625 C 1.898438 -1.9375 1.585938 -1.882812 1.265625 -1.90625 C 0.960938 -1.90625 0.65625 -1.96875 0.34375 -2.09375 C 0.0390625 -2.226562 -0.226562 -2.421875 -0.46875 -2.671875 C -1.132812 -3.359375 -1.800781 -4.046875 -2.46875 -4.734375 C -3.132812 -5.429688 -3.796875 -6.128906 -4.453125 -6.828125 C -5.109375 -7.515625 -5.769531 -8.195312 -6.4375 -8.875 C -7.101562 -9.550781 -7.773438 -10.226562 -8.453125 -10.90625 C -8.648438 -11.113281 -8.863281 -11.285156 -9.09375 -11.421875 C -9.332031 -11.554688 -9.550781 -11.726562 -9.75 -11.9375 C -9.851562 -12.039062 -9.929688 -12.15625 -9.984375 -12.28125 C -10.035156 -12.414062 -10.054688 -12.550781 -10.046875 -12.6875 C -10.023438 -12.820312 -9.957031 -12.976562 -9.84375 -13.15625 C -9.726562 -13.332031 -9.554688 -13.535156 -9.328125 -13.765625 C -9.023438 -14.054688 -8.765625 -14.300781 -8.546875 -14.5 C -8.335938 -14.707031 -8.140625 -14.859375 -7.953125 -14.953125 C -7.753906 -15.066406 -7.550781 -15.144531 -7.34375 -15.1875 C -7.132812 -15.226562 -6.890625 -15.242188 -6.609375 -15.234375 L -0.5 -14.84375 C -0.488281 -15.914062 -0.5 -16.816406 -0.53125 -17.546875 C -0.5625 -18.285156 -0.601562 -18.882812 -0.65625 -19.34375 C -0.675781 -19.570312 -0.695312 -19.773438 -0.71875 -19.953125 C -0.738281 -20.128906 -0.757812 -20.273438 -0.78125 -20.390625 L -0.875 -20.84375 C -0.90625 -20.976562 -0.921875 -21.109375 -0.921875 -21.234375 C -0.921875 -21.367188 -0.898438 -21.507812 -0.859375 -21.65625 C -0.785156 -21.820312 -0.679688 -22 -0.546875 -22.1875 C -0.410156 -22.382812 -0.21875 -22.597656 0.03125 -22.828125 C 0.382812 -23.171875 0.722656 -23.398438 1.046875 -23.515625 C 1.367188 -23.640625 1.671875 -23.6875 1.953125 -23.65625 C 2.253906 -23.625 2.53125 -23.535156 2.78125 -23.390625 C 3.039062 -23.242188 3.28125 -23.082031 3.5 -22.90625 C 3.601562 -22.8125 3.707031 -22.71875 3.8125 -22.625 C 3.914062 -22.53125 4.003906 -22.4375 4.078125 -22.34375 C 4.160156 -22.25 4.238281 -22.164062 4.3125 -22.09375 C 4.382812 -22.019531 4.453125 -21.953125 4.515625 -21.890625 L 11.703125 -14.46875 C 11.941406 -14.21875 12.125 -13.9375 12.25 -13.625 C 12.375 -13.320312 12.425781 -13.015625 12.40625 -12.703125 C 12.414062 -12.378906 12.351562 -12.066406 12.21875 -11.765625 C 12.09375 -11.472656 11.90625 -11.207031 11.65625 -10.96875 C 11.488281 -10.800781 11.273438 -10.648438 11.015625 -10.515625 C 10.753906 -10.390625 10.460938 -10.304688 10.140625 -10.265625 C 9.828125 -10.234375 9.5 -10.273438 9.15625 -10.390625 C 8.8125 -10.503906 8.484375 -10.722656 8.171875 -11.046875 L 3.5 -15.859375 L 3.78125 -13.125 C 3.820312 -12.59375 3.828125 -12.140625 3.796875 -11.765625 C 3.773438 -11.398438 3.65625 -11.109375 3.4375 -10.890625 C 3.3125 -10.773438 3.175781 -10.695312 3.03125 -10.65625 C 2.894531 -10.613281 2.742188 -10.582031 2.578125 -10.5625 C 2.398438 -10.550781 2.207031 -10.550781 2 -10.5625 Z M 2 -10.5625 "/></g></g></g><g fill="#dc5274" fill-opacity="1"><g transform="translate(112.091053, 94.653577)"><g><path d="M -5.515625 -15.265625 L 0 -13.703125 L 0.234375 -19.421875 C 0.242188 -19.765625 0.332031 -20.078125 0.5 -20.359375 C 0.675781 -20.640625 0.898438 -20.867188 1.171875 -21.046875 C 1.441406 -21.222656 1.742188 -21.351562 2.078125 -21.4375 C 2.410156 -21.519531 2.742188 -21.535156 3.078125 -21.484375 C 3.410156 -21.421875 3.710938 -21.300781 3.984375 -21.125 C 4.265625 -20.945312 4.492188 -20.734375 4.671875 -20.484375 C 5.054688 -19.960938 5.210938 -19.347656 5.140625 -18.640625 L 4.453125 -11.734375 L 7.203125 -7.9375 C 7.398438 -7.65625 7.535156 -7.351562 7.609375 -7.03125 C 7.691406 -6.707031 7.703125 -6.390625 7.640625 -6.078125 C 7.597656 -5.765625 7.488281 -5.46875 7.3125 -5.1875 C 7.144531 -4.90625 6.921875 -4.664062 6.640625 -4.46875 C 6.359375 -4.257812 6.054688 -4.117188 5.734375 -4.046875 C 5.421875 -3.972656 5.109375 -3.96875 4.796875 -4.03125 C 4.492188 -4.070312 4.195312 -4.175781 3.90625 -4.34375 C 3.613281 -4.519531 3.367188 -4.75 3.171875 -5.03125 L 0.4375 -8.8125 L -6.296875 -10.375 C -6.992188 -10.53125 -7.535156 -10.867188 -7.921875 -11.390625 C -8.109375 -11.640625 -8.238281 -11.914062 -8.3125 -12.21875 C -8.382812 -12.53125 -8.398438 -12.863281 -8.359375 -13.21875 C -8.296875 -13.5625 -8.175781 -13.875 -8 -14.15625 C -7.820312 -14.445312 -7.597656 -14.695312 -7.328125 -14.90625 C -7.078125 -15.101562 -6.789062 -15.238281 -6.46875 -15.3125 C -6.15625 -15.382812 -5.835938 -15.367188 -5.515625 -15.265625 Z M -5.515625 -15.265625 "/></g></g></g><g fill="#dc5274" fill-opacity="1"><g transform="translate(124.340651, 85.578406)"><g><path d="M 4.90625 -9.5625 L 4.171875 -9.828125 L 1.5625 -10.90625 C 1.769531 -10.519531 1.957031 -10.160156 2.125 -9.828125 C 2.300781 -9.492188 2.46875 -9.191406 2.625 -8.921875 L 3.421875 -7.40625 C 3.523438 -7.1875 3.628906 -6.972656 3.734375 -6.765625 C 3.847656 -6.566406 3.960938 -6.367188 4.078125 -6.171875 L 4.703125 -4.96875 C 4.859375 -4.664062 4.953125 -4.347656 4.984375 -4.015625 C 5.015625 -3.691406 4.984375 -3.382812 4.890625 -3.09375 C 4.804688 -2.789062 4.65625 -2.507812 4.4375 -2.25 C 4.226562 -2 3.96875 -1.789062 3.65625 -1.625 C 3.34375 -1.46875 3.019531 -1.375 2.6875 -1.34375 C 2.363281 -1.320312 2.054688 -1.359375 1.765625 -1.453125 C 1.460938 -1.546875 1.179688 -1.695312 0.921875 -1.90625 C 0.671875 -2.125 0.46875 -2.382812 0.3125 -2.6875 C -0.132812 -3.53125 -0.578125 -4.378906 -1.015625 -5.234375 C -1.453125 -6.085938 -1.890625 -6.945312 -2.328125 -7.8125 C -2.753906 -8.65625 -3.1875 -9.5 -3.625 -10.34375 C -4.070312 -11.1875 -4.53125 -12.03125 -5 -12.875 C -5.125 -13.113281 -5.28125 -13.335938 -5.46875 -13.546875 C -5.65625 -13.742188 -5.8125 -13.96875 -5.9375 -14.21875 C -6.007812 -14.34375 -6.050781 -14.472656 -6.0625 -14.609375 C -6.082031 -14.753906 -6.066406 -14.890625 -6.015625 -15.015625 C -5.953125 -15.148438 -5.835938 -15.285156 -5.671875 -15.421875 C -5.515625 -15.554688 -5.296875 -15.695312 -5.015625 -15.84375 C -4.640625 -16.039062 -4.320312 -16.203125 -4.0625 -16.328125 C -3.800781 -16.460938 -3.566406 -16.554688 -3.359375 -16.609375 C -3.128906 -16.660156 -2.910156 -16.675781 -2.703125 -16.65625 C -2.492188 -16.632812 -2.253906 -16.570312 -1.984375 -16.46875 L 3.765625 -14.359375 C 4.066406 -15.390625 4.3125 -16.257812 4.5 -16.96875 C 4.6875 -17.6875 4.820312 -18.273438 4.90625 -18.734375 C 4.945312 -18.953125 4.976562 -19.144531 5 -19.3125 C 5.03125 -19.488281 5.050781 -19.640625 5.0625 -19.765625 L 5.09375 -20.234375 C 5.113281 -20.367188 5.140625 -20.5 5.171875 -20.625 C 5.210938 -20.75 5.273438 -20.878906 5.359375 -21.015625 C 5.460938 -21.140625 5.609375 -21.269531 5.796875 -21.40625 C 5.984375 -21.550781 6.234375 -21.707031 6.546875 -21.875 C 6.972656 -22.09375 7.359375 -22.210938 7.703125 -22.234375 C 8.046875 -22.265625 8.351562 -22.226562 8.625 -22.125 C 8.90625 -22.007812 9.144531 -21.84375 9.34375 -21.625 C 9.550781 -21.414062 9.726562 -21.191406 9.875 -20.953125 C 9.96875 -20.835938 10.046875 -20.71875 10.109375 -20.59375 C 10.179688 -20.476562 10.238281 -20.363281 10.28125 -20.25 C 10.332031 -20.132812 10.378906 -20.03125 10.421875 -19.9375 C 10.472656 -19.84375 10.519531 -19.757812 10.5625 -19.6875 L 15.34375 -10.515625 C 15.5 -10.210938 15.59375 -9.894531 15.625 -9.5625 C 15.65625 -9.238281 15.625 -8.929688 15.53125 -8.640625 C 15.4375 -8.328125 15.28125 -8.046875 15.0625 -7.796875 C 14.851562 -7.546875 14.597656 -7.335938 14.296875 -7.171875 C 14.085938 -7.066406 13.84375 -6.988281 13.5625 -6.9375 C 13.28125 -6.882812 12.976562 -6.890625 12.65625 -6.953125 C 12.34375 -7.015625 12.039062 -7.144531 11.75 -7.34375 C 11.457031 -7.550781 11.207031 -7.851562 11 -8.25 L 7.890625 -14.203125 L 7.359375 -11.484375 C 7.253906 -10.972656 7.132812 -10.546875 7 -10.203125 C 6.875 -9.859375 6.671875 -9.613281 6.390625 -9.46875 C 6.242188 -9.394531 6.097656 -9.351562 5.953125 -9.34375 C 5.816406 -9.332031 5.660156 -9.34375 5.484375 -9.375 C 5.304688 -9.425781 5.113281 -9.488281 4.90625 -9.5625 Z M 4.90625 -9.5625 "/></g></g></g><g fill="#dc5274" fill-opacity="1"><g transform="translate(141.198714, 76.908521)"><g><path d="M 12.828125 -6.90625 C 12.941406 -6.582031 12.992188 -6.253906 12.984375 -5.921875 C 12.972656 -5.585938 12.898438 -5.28125 12.765625 -5 C 12.617188 -4.71875 12.425781 -4.460938 12.1875 -4.234375 C 11.945312 -4.015625 11.660156 -3.847656 11.328125 -3.734375 L 4.109375 -1.1875 C 3.773438 -1.070312 3.445312 -1.023438 3.125 -1.046875 C 2.800781 -1.066406 2.5 -1.140625 2.21875 -1.265625 C 1.9375 -1.398438 1.679688 -1.585938 1.453125 -1.828125 C 1.234375 -2.078125 1.0625 -2.367188 0.9375 -2.703125 L -2.875 -13.53125 C -2.925781 -13.65625 -2.984375 -13.78125 -3.046875 -13.90625 C -3.117188 -14.039062 -3.191406 -14.164062 -3.265625 -14.28125 C -3.335938 -14.40625 -3.40625 -14.523438 -3.46875 -14.640625 C -3.53125 -14.765625 -3.582031 -14.890625 -3.625 -15.015625 C -3.675781 -15.148438 -3.695312 -15.285156 -3.6875 -15.421875 C -3.6875 -15.566406 -3.648438 -15.691406 -3.578125 -15.796875 C -3.503906 -15.929688 -3.378906 -16.050781 -3.203125 -16.15625 C -3.023438 -16.269531 -2.785156 -16.378906 -2.484375 -16.484375 L 5.796875 -19.40625 C 6.296875 -19.582031 6.75 -19.625 7.15625 -19.53125 C 7.570312 -19.4375 7.925781 -19.253906 8.21875 -18.984375 C 8.5 -18.710938 8.707031 -18.382812 8.84375 -18 C 8.988281 -17.613281 9.035156 -17.226562 8.984375 -16.84375 C 8.929688 -16.457031 8.773438 -16.09375 8.515625 -15.75 C 8.253906 -15.40625 7.867188 -15.144531 7.359375 -14.96875 L 2.46875 -13.25 L 2.921875 -11.984375 L 6.3125 -13.171875 C 6.664062 -13.296875 7.03125 -13.320312 7.40625 -13.25 C 7.789062 -13.1875 8.128906 -13.046875 8.421875 -12.828125 C 8.710938 -12.617188 8.945312 -12.34375 9.125 -12 C 9.3125 -11.664062 9.390625 -11.296875 9.359375 -10.890625 C 9.304688 -10.421875 9.148438 -10.007812 8.890625 -9.65625 C 8.628906 -9.300781 8.273438 -9.046875 7.828125 -8.890625 L 4.4375 -7.703125 L 4.78125 -6.703125 L 9.671875 -8.421875 C 10.003906 -8.535156 10.332031 -8.582031 10.65625 -8.5625 C 10.976562 -8.550781 11.285156 -8.476562 11.578125 -8.34375 C 11.867188 -8.207031 12.117188 -8.015625 12.328125 -7.765625 C 12.546875 -7.523438 12.710938 -7.238281 12.828125 -6.90625 Z M 12.828125 -6.90625 "/></g></g></g><g fill="#dc5274" fill-opacity="1"><g transform="translate(154.918339, 72.060007)"><g><path d="M 12.609375 -5.375 C 12.679688 -5.039062 12.695312 -4.710938 12.65625 -4.390625 C 12.613281 -4.066406 12.519531 -3.78125 12.375 -3.53125 C 12.226562 -3.257812 12.03125 -3.03125 11.78125 -2.84375 C 11.539062 -2.65625 11.253906 -2.523438 10.921875 -2.453125 L 4.0625 -0.90625 C 3.375 -0.800781 2.765625 -0.925781 2.234375 -1.28125 C 1.992188 -1.4375 1.78125 -1.644531 1.59375 -1.90625 C 1.40625 -2.175781 1.273438 -2.476562 1.203125 -2.8125 L -1.3125 -14.015625 C -1.351562 -14.148438 -1.394531 -14.28125 -1.4375 -14.40625 C -1.488281 -14.539062 -1.550781 -14.675781 -1.625 -14.8125 C -1.675781 -14.945312 -1.722656 -15.078125 -1.765625 -15.203125 C -1.804688 -15.328125 -1.84375 -15.453125 -1.875 -15.578125 C -1.90625 -15.710938 -1.910156 -15.851562 -1.890625 -16 C -1.878906 -16.144531 -1.828125 -16.269531 -1.734375 -16.375 C -1.640625 -16.488281 -1.5 -16.585938 -1.3125 -16.671875 C -1.125 -16.765625 -0.878906 -16.847656 -0.578125 -16.921875 C -0.117188 -17.023438 0.328125 -17.085938 0.765625 -17.109375 C 1.203125 -17.140625 1.597656 -17.109375 1.953125 -17.015625 C 2.316406 -16.910156 2.632812 -16.722656 2.90625 -16.453125 C 3.1875 -16.191406 3.382812 -15.800781 3.5 -15.28125 L 5.5 -6.328125 L 9.65625 -7.25 C 9.976562 -7.320312 10.300781 -7.328125 10.625 -7.265625 C 10.957031 -7.210938 11.253906 -7.101562 11.515625 -6.9375 C 11.785156 -6.757812 12.015625 -6.535156 12.203125 -6.265625 C 12.398438 -6.003906 12.535156 -5.707031 12.609375 -5.375 Z M 12.609375 -5.375 "/></g></g></g><g fill="#dc5274" fill-opacity="1"><g transform="translate(167.96221, 68.948297)"><g><path d="M 0.0625 -8.09375 C -0.0390625 -9.226562 0.0703125 -10.316406 0.40625 -11.359375 C 0.75 -12.410156 1.265625 -13.34375 1.953125 -14.15625 C 2.640625 -14.988281 3.46875 -15.664062 4.4375 -16.1875 C 5.40625 -16.707031 6.460938 -17.019531 7.609375 -17.125 C 8.359375 -17.195312 9.09375 -17.164062 9.8125 -17.03125 C 10.539062 -16.894531 11.226562 -16.671875 11.875 -16.359375 C 13.1875 -15.742188 14.269531 -14.847656 15.125 -13.671875 C 15.539062 -13.085938 15.875 -12.453125 16.125 -11.765625 C 16.382812 -11.085938 16.550781 -10.363281 16.625 -9.59375 C 16.726562 -8.445312 16.609375 -7.351562 16.265625 -6.3125 C 15.921875 -5.269531 15.40625 -4.335938 14.71875 -3.515625 C 14.03125 -2.703125 13.203125 -2.03125 12.234375 -1.5 C 11.273438 -0.976562 10.226562 -0.664062 9.09375 -0.5625 C 7.945312 -0.457031 6.851562 -0.578125 5.8125 -0.921875 C 4.769531 -1.265625 3.832031 -1.773438 3 -2.453125 C 2.1875 -3.140625 1.519531 -3.960938 1 -4.921875 C 0.476562 -5.890625 0.164062 -6.945312 0.0625 -8.09375 Z M 5.03125 -8.5 C 5.070312 -8.050781 5.191406 -7.628906 5.390625 -7.234375 C 5.597656 -6.835938 5.867188 -6.503906 6.203125 -6.234375 C 6.523438 -5.929688 6.898438 -5.703125 7.328125 -5.546875 C 7.753906 -5.398438 8.203125 -5.347656 8.671875 -5.390625 C 9.117188 -5.429688 9.535156 -5.566406 9.921875 -5.796875 C 10.304688 -6.023438 10.640625 -6.3125 10.921875 -6.65625 C 11.191406 -7 11.394531 -7.382812 11.53125 -7.8125 C 11.675781 -8.25 11.726562 -8.695312 11.6875 -9.15625 C 11.644531 -9.613281 11.515625 -10.035156 11.296875 -10.421875 C 11.085938 -10.816406 10.816406 -11.15625 10.484375 -11.4375 C 10.148438 -11.707031 9.769531 -11.914062 9.34375 -12.0625 C 8.925781 -12.21875 8.492188 -12.273438 8.046875 -12.234375 C 7.578125 -12.191406 7.144531 -12.0625 6.75 -11.84375 C 6.363281 -11.625 6.035156 -11.34375 5.765625 -11 C 5.492188 -10.65625 5.289062 -10.265625 5.15625 -9.828125 C 5.03125 -9.398438 4.988281 -8.957031 5.03125 -8.5 Z M 5.03125 -8.5 "/></g></g></g><g fill="#dc5274" fill-opacity="1"><g transform="translate(185.335318, 67.361946)"><g><path d="M 8.078125 0.6875 L 4.265625 0.484375 C 3.640625 0.441406 3.117188 0.226562 2.703125 -0.15625 C 2.503906 -0.351562 2.335938 -0.570312 2.203125 -0.8125 C 2.066406 -1.0625 1.984375 -1.332031 1.953125 -1.625 C 1.921875 -1.757812 1.910156 -1.929688 1.921875 -2.140625 L 2.53125 -13.609375 C 2.53125 -13.742188 2.519531 -13.878906 2.5 -14.015625 C 2.488281 -14.160156 2.472656 -14.300781 2.453125 -14.4375 C 2.421875 -14.582031 2.398438 -14.722656 2.390625 -14.859375 C 2.390625 -14.992188 2.390625 -15.128906 2.390625 -15.265625 C 2.398438 -15.410156 2.429688 -15.546875 2.484375 -15.671875 C 2.546875 -15.796875 2.632812 -15.898438 2.75 -15.984375 C 2.863281 -16.066406 3.023438 -16.125 3.234375 -16.15625 C 3.441406 -16.1875 3.703125 -16.191406 4.015625 -16.171875 L 8.96875 -15.90625 C 9.726562 -15.863281 10.457031 -15.726562 11.15625 -15.5 C 11.851562 -15.269531 12.5 -14.957031 13.09375 -14.5625 C 14.300781 -13.769531 15.242188 -12.722656 15.921875 -11.421875 C 16.253906 -10.785156 16.5 -10.109375 16.65625 -9.390625 C 16.8125 -8.679688 16.867188 -7.941406 16.828125 -7.171875 C 16.765625 -6.023438 16.488281 -4.957031 16 -3.96875 C 15.507812 -2.988281 14.867188 -2.144531 14.078125 -1.4375 C 13.285156 -0.71875 12.367188 -0.171875 11.328125 0.203125 C 10.296875 0.585938 9.210938 0.75 8.078125 0.6875 Z M 11.875 -7.4375 C 11.894531 -8.007812 11.828125 -8.519531 11.671875 -8.96875 C 11.523438 -9.425781 11.3125 -9.816406 11.03125 -10.140625 C 10.738281 -10.460938 10.394531 -10.722656 10 -10.921875 C 9.601562 -11.117188 9.175781 -11.238281 8.71875 -11.28125 L 7.359375 -11.359375 L 6.984375 -4.265625 L 8.34375 -4.1875 C 9.289062 -4.1875 10.09375 -4.476562 10.75 -5.0625 C 11.070312 -5.34375 11.332031 -5.679688 11.53125 -6.078125 C 11.726562 -6.484375 11.84375 -6.9375 11.875 -7.4375 Z M 11.875 -7.4375 "/></g></g></g><g fill="#dc5274" fill-opacity="1"><g transform="translate(201.799488, 68.234028)"><g><path d="M 7.3125 -14.5 L 9.953125 -9.40625 L 14.28125 -13.171875 C 14.53125 -13.398438 14.816406 -13.546875 15.140625 -13.609375 C 15.460938 -13.679688 15.78125 -13.679688 16.09375 -13.609375 C 16.414062 -13.546875 16.71875 -13.414062 17 -13.21875 C 17.28125 -13.03125 17.523438 -12.796875 17.734375 -12.515625 C 17.910156 -12.234375 18.023438 -11.929688 18.078125 -11.609375 C 18.140625 -11.296875 18.144531 -10.984375 18.09375 -10.671875 C 17.96875 -10.035156 17.628906 -9.5 17.078125 -9.0625 L 11.59375 -4.828125 L 10.71875 -0.21875 C 10.644531 0.113281 10.515625 0.421875 10.328125 0.703125 C 10.148438 0.984375 9.925781 1.210938 9.65625 1.390625 C 9.394531 1.566406 9.101562 1.6875 8.78125 1.75 C 8.46875 1.820312 8.144531 1.828125 7.8125 1.765625 C 7.46875 1.691406 7.15625 1.5625 6.875 1.375 C 6.601562 1.195312 6.378906 0.984375 6.203125 0.734375 C 6.023438 0.472656 5.898438 0.179688 5.828125 -0.140625 C 5.765625 -0.472656 5.769531 -0.804688 5.84375 -1.140625 L 6.703125 -5.71875 L 3.21875 -11.6875 C 2.84375 -12.3125 2.71875 -12.941406 2.84375 -13.578125 C 2.882812 -13.890625 2.988281 -14.175781 3.15625 -14.4375 C 3.332031 -14.707031 3.570312 -14.941406 3.875 -15.140625 C 4.15625 -15.335938 4.457031 -15.472656 4.78125 -15.546875 C 5.113281 -15.617188 5.445312 -15.628906 5.78125 -15.578125 C 6.09375 -15.523438 6.382812 -15.40625 6.65625 -15.21875 C 6.925781 -15.039062 7.144531 -14.800781 7.3125 -14.5 Z M 7.3125 -14.5 "/></g></g></g><g fill="#dc5274" fill-opacity="1"><g transform="translate(222.321435, 72.600459)"><g><path d="M 17.703125 -4.390625 C 17.367188 -3.523438 16.867188 -2.800781 16.203125 -2.21875 C 15.546875 -1.644531 14.789062 -1.222656 13.9375 -0.953125 L 14.953125 1.71875 C 15.078125 2.039062 15.128906 2.359375 15.109375 2.671875 C 15.085938 2.992188 15.003906 3.289062 14.859375 3.5625 C 14.722656 3.84375 14.53125 4.09375 14.28125 4.3125 C 14.039062 4.53125 13.753906 4.6875 13.421875 4.78125 C 12.765625 4.988281 12.148438 4.945312 11.578125 4.65625 C 11.304688 4.507812 11.066406 4.316406 10.859375 4.078125 C 10.648438 3.847656 10.492188 3.578125 10.390625 3.265625 L 9.171875 -1.21875 L 7.875 -1.703125 L 7.109375 0.3125 C 6.984375 0.632812 6.804688 0.914062 6.578125 1.15625 C 6.347656 1.394531 6.097656 1.582031 5.828125 1.71875 C 5.523438 1.851562 5.207031 1.921875 4.875 1.921875 C 4.550781 1.929688 4.226562 1.875 3.90625 1.75 C 3.570312 1.625 3.285156 1.453125 3.046875 1.234375 C 2.816406 1.015625 2.640625 0.753906 2.515625 0.453125 C 2.390625 0.171875 2.316406 -0.132812 2.296875 -0.46875 C 2.285156 -0.800781 2.34375 -1.128906 2.46875 -1.453125 L 6.609375 -12.34375 C 6.660156 -12.476562 6.703125 -12.613281 6.734375 -12.75 C 6.765625 -12.894531 6.789062 -13.039062 6.8125 -13.1875 C 6.851562 -13.476562 6.914062 -13.734375 7 -13.953125 C 7.050781 -14.085938 7.125 -14.207031 7.21875 -14.3125 C 7.3125 -14.425781 7.425781 -14.503906 7.5625 -14.546875 C 7.695312 -14.585938 7.867188 -14.59375 8.078125 -14.5625 C 8.285156 -14.539062 8.535156 -14.476562 8.828125 -14.375 L 13.765625 -12.484375 C 14.566406 -12.179688 15.28125 -11.738281 15.90625 -11.15625 C 16.53125 -10.582031 17.03125 -9.925781 17.40625 -9.1875 C 17.769531 -8.445312 17.984375 -7.664062 18.046875 -6.84375 C 18.117188 -6.019531 18.003906 -5.203125 17.703125 -4.390625 Z M 13.109375 -5.984375 C 13.203125 -6.210938 13.242188 -6.445312 13.234375 -6.6875 C 13.234375 -6.9375 13.191406 -7.171875 13.109375 -7.390625 C 13.035156 -7.597656 12.921875 -7.789062 12.765625 -7.96875 C 12.609375 -8.144531 12.421875 -8.273438 12.203125 -8.359375 L 10.53125 -9 L 9.265625 -5.671875 L 10.9375 -5.03125 C 11.382812 -4.863281 11.816406 -4.875 12.234375 -5.0625 C 12.421875 -5.132812 12.59375 -5.25 12.75 -5.40625 C 12.90625 -5.570312 13.023438 -5.765625 13.109375 -5.984375 Z M 13.109375 -5.984375 "/></g></g></g><g fill="#dc5274" fill-opacity="1"><g transform="translate(236.246231, 77.850034)"><g><path d="M 14.5 -10.828125 C 14.757812 -10.691406 14.972656 -10.523438 15.140625 -10.328125 C 15.304688 -10.128906 15.429688 -9.914062 15.515625 -9.6875 C 15.617188 -9.445312 15.6875 -9.191406 15.71875 -8.921875 C 15.75 -8.648438 15.75 -8.375 15.71875 -8.09375 L 14.5 4.203125 C 14.488281 4.359375 14.457031 4.503906 14.40625 4.640625 C 14.351562 4.773438 14.289062 4.914062 14.21875 5.0625 C 13.914062 5.632812 13.441406 6.035156 12.796875 6.265625 C 12.378906 6.390625 11.96875 6.410156 11.5625 6.328125 C 11.15625 6.242188 10.796875 6.070312 10.484375 5.8125 C 10.148438 5.5625 9.894531 5.238281 9.71875 4.84375 C 9.550781 4.445312 9.5 4.023438 9.5625 3.578125 L 9.625 2.8125 L 5.890625 0.8125 L 5.265625 1.296875 C 4.867188 1.609375 4.425781 1.800781 3.9375 1.875 C 3.445312 1.957031 2.960938 1.867188 2.484375 1.609375 C 2.117188 1.421875 1.832031 1.175781 1.625 0.875 C 1.425781 0.570312 1.289062 0.242188 1.21875 -0.109375 C 1.144531 -0.453125 1.144531 -0.800781 1.21875 -1.15625 C 1.300781 -1.507812 1.457031 -1.832031 1.6875 -2.125 C 1.738281 -2.175781 1.789062 -2.226562 1.84375 -2.28125 C 1.894531 -2.34375 1.953125 -2.398438 2.015625 -2.453125 L 11.03125 -9.9375 C 11.113281 -10 11.1875 -10.0625 11.25 -10.125 C 11.320312 -10.1875 11.390625 -10.253906 11.453125 -10.328125 C 11.566406 -10.472656 11.6875 -10.617188 11.8125 -10.765625 C 11.9375 -10.910156 12.070312 -11.03125 12.21875 -11.125 C 12.507812 -11.34375 12.929688 -11.382812 13.484375 -11.25 C 13.773438 -11.175781 14.113281 -11.035156 14.5 -10.828125 Z M 10.578125 -0.9375 L 11 -4.25 L 8.453125 -2.078125 Z M 10.578125 -0.9375 "/></g></g></g><g fill="#dc5274" fill-opacity="1"><g transform="translate(249.484569, 84.870049)"><g><path d="M 20.34375 -2.625 C 20.144531 -2.34375 19.898438 -2.113281 19.609375 -1.9375 C 19.316406 -1.769531 19.019531 -1.664062 18.71875 -1.625 C 18.40625 -1.570312 18.085938 -1.582031 17.765625 -1.65625 C 17.441406 -1.726562 17.144531 -1.859375 16.875 -2.046875 L 14.953125 -3.40625 L 9.609375 4.0625 C 9.410156 4.34375 9.171875 4.570312 8.890625 4.75 C 8.609375 4.925781 8.316406 5.046875 8.015625 5.109375 C 7.722656 5.171875 7.414062 5.164062 7.09375 5.09375 C 6.78125 5.019531 6.484375 4.882812 6.203125 4.6875 C 5.910156 4.488281 5.675781 4.25 5.5 3.96875 C 5.332031 3.695312 5.226562 3.398438 5.1875 3.078125 C 5.144531 2.785156 5.160156 2.476562 5.234375 2.15625 C 5.304688 1.832031 5.441406 1.53125 5.640625 1.25 L 10.90625 -6.28125 L 8.9375 -7.671875 C 8.644531 -7.867188 8.414062 -8.101562 8.25 -8.375 C 8.082031 -8.644531 7.972656 -8.929688 7.921875 -9.234375 C 7.859375 -9.554688 7.863281 -9.878906 7.9375 -10.203125 C 8.019531 -10.523438 8.160156 -10.828125 8.359375 -11.109375 C 8.554688 -11.390625 8.796875 -11.617188 9.078125 -11.796875 C 9.359375 -11.972656 9.65625 -12.085938 9.96875 -12.140625 C 10.28125 -12.191406 10.585938 -12.179688 10.890625 -12.109375 C 11.203125 -12.035156 11.503906 -11.898438 11.796875 -11.703125 L 19.734375 -6.078125 C 20.003906 -5.890625 20.222656 -5.65625 20.390625 -5.375 C 20.566406 -5.09375 20.6875 -4.800781 20.75 -4.5 C 20.789062 -4.175781 20.78125 -3.851562 20.71875 -3.53125 C 20.664062 -3.207031 20.539062 -2.90625 20.34375 -2.625 Z M 20.34375 -2.625 "/></g></g></g><g fill="#dc5274" fill-opacity="1"><g transform="translate(261.576725, 93.38754)"><g><path d="M 12.140625 8.0625 C 11.910156 8.320312 11.644531 8.519531 11.34375 8.65625 C 11.039062 8.800781 10.738281 8.878906 10.4375 8.890625 C 10.101562 8.910156 9.785156 8.863281 9.484375 8.75 C 9.179688 8.632812 8.894531 8.460938 8.625 8.234375 L 2.984375 3.078125 C 2.722656 2.835938 2.519531 2.566406 2.375 2.265625 C 2.238281 1.972656 2.171875 1.675781 2.171875 1.375 C 2.148438 1.050781 2.195312 0.734375 2.3125 0.421875 C 2.425781 0.117188 2.597656 -0.164062 2.828125 -0.4375 L 10.578125 -8.90625 C 10.660156 -9.019531 10.738281 -9.132812 10.8125 -9.25 C 10.894531 -9.375 10.972656 -9.492188 11.046875 -9.609375 C 11.117188 -9.742188 11.191406 -9.863281 11.265625 -9.96875 C 11.347656 -10.070312 11.4375 -10.175781 11.53125 -10.28125 C 11.625 -10.382812 11.726562 -10.46875 11.84375 -10.53125 C 11.96875 -10.601562 12.101562 -10.628906 12.25 -10.609375 C 12.394531 -10.597656 12.554688 -10.539062 12.734375 -10.4375 C 12.921875 -10.34375 13.128906 -10.1875 13.359375 -9.96875 L 19.84375 -4.046875 C 20.238281 -3.691406 20.488281 -3.304688 20.59375 -2.890625 C 20.695312 -2.484375 20.703125 -2.085938 20.609375 -1.703125 C 20.503906 -1.335938 20.316406 -1 20.046875 -0.6875 C 19.773438 -0.382812 19.453125 -0.160156 19.078125 -0.015625 C 18.722656 0.109375 18.332031 0.132812 17.90625 0.0625 C 17.488281 0 17.078125 -0.210938 16.671875 -0.578125 L 12.859375 -4.078125 L 11.953125 -3.078125 L 14.609375 -0.65625 C 14.878906 -0.394531 15.070312 -0.0820312 15.1875 0.28125 C 15.3125 0.644531 15.34375 1.007812 15.28125 1.375 C 15.226562 1.726562 15.097656 2.0625 14.890625 2.375 C 14.679688 2.695312 14.390625 2.941406 14.015625 3.109375 C 13.578125 3.285156 13.140625 3.34375 12.703125 3.28125 C 12.265625 3.21875 11.875 3.023438 11.53125 2.703125 L 8.875 0.28125 L 8.171875 1.0625 L 11.984375 4.5625 C 12.253906 4.789062 12.453125 5.054688 12.578125 5.359375 C 12.710938 5.660156 12.796875 5.960938 12.828125 6.265625 C 12.828125 6.585938 12.769531 6.898438 12.65625 7.203125 C 12.550781 7.515625 12.378906 7.800781 12.140625 8.0625 Z M 12.140625 8.0625 "/></g></g></g><g fill="#dc5274" fill-opacity="1"><g transform="translate(272.325732, 103.443191)"><g/></g></g></svg>